# xmcd CD database file
#
# Track frame offsets:
#	150
#	17219
#	29193
#	49712
#	61920
#	81482
#	95396
#	115204
#	130503
#	148523
#	161973
#	176601
#	197074
#	209706
#	223963
#	242586
#	258637
#	279962
#	302179
#	324333
#
# Disc length: 4612 seconds
#
# Revision: 4
# Processed by: cddbd v1.4PL0 Copyright (c) Steve Scherf et al.
# Submitted via: CdAid 2001.05.15.01
#
DISCID=33120214
DTITLE=Van Morrison - The Best Of...
DYEAR=1900
DGENRE=
TTITLE0=Bright Side Of The Road
TTITLE1=Gloria
TTITLE2=Moondance
TTITLE3=Baby Please Don't Go
TTITLE4=Have I Told You Lately
TTITLE5=Brown Eyed Girl
TTITLE6=Sweet Thing
TTITLE7=Warm Love
TTITLE8=Wonderful Remark
TTITLE9=Jackie Wilson Said (I'm In Heaven When You Smile)
TTITLE10=Full Force Gale
TTITLE11=And It Stoned Me
TTITLE12=Here Comes The Night
TTITLE13=Domino
TTITLE14=Did Ye Get Healed
TTITLE15=Wild Night
TTITLE16=Cleaning Windows
TTITLE17=Whenever God Shines His Light
TTITLE18=Queen Of The Slipstream
TTITLE19=Dweller On The Threshold
EXTD=
EXTT0=
EXTT1=
EXTT2=
EXTT3=
EXTT4=
EXTT5=
EXTT6=
EXTT7=
EXTT8=
EXTT9=
EXTT10=
EXTT11=
EXTT12=
EXTT13=
EXTT14=
EXTT15=
EXTT16=
EXTT17=
EXTT18=
EXTT19=
PLAYORDER=
